<?xml version="1.0" encoding="utf-8"?>
<!-- Generator: Adobe Illustrator 25.2.1, SVG Export Plug-In . SVG Version: 6.00 Build 0)  -->
<svg version="1.1" id="图层_1" xmlns="http://www.w3.org/2000/svg" xmlns:xlink="http://www.w3.org/1999/xlink" x="0px" y="0px"
	 viewBox="0 0 1024 1024" style="enable-background:new 0 0 1024 1024;" xml:space="preserve">
<style type="text/css">
	.st0{fill:#FFFFFF;}
</style>
<circle cx="512" cy="512" r="512"/>
<g>
	<polygon class="st0" points="474.5,613.4 834.2,368.3 646.1,613.4 834.7,613.4 833.9,189.3 378.7,613.4 	"/>
	<polygon class="st0" points="378.7,613.4 189.6,368.3 549.4,613.4 646.1,613.4 189.3,189.3 190.1,613.4 	"/>
</g>
<g>
	<path class="st0" d="M189.3,669.1h45.4c50.6,0,81.9,26.2,81.9,82.2c0,55.7-31.3,83.4-80.1,83.4h-26l-21.2-21.2V669.1L189.3,669.1z
		 M232.7,808c30.9,0,50.1-16.6,50.1-56.8c0-40.5-19.2-55.7-50.1-55.7h-10.3V808H232.7z"/>
	<path class="st0" d="M376.2,669.1h33.2V807h67.1v27.7h-79.1l-21.2-21.2V669.1z"/>
	<path class="st0" d="M711.3,669.1h54.8c34,0,60,9.9,60,40.7c0,15.2-8.5,31.6-22.6,36.5l0,0c17.9,4.2,31.1,17.1,31.1,39.5
		c0,33.3-27.7,48.8-64.2,48.8h-37.9l-21.1-21.1L711.3,669.1L711.3,669.1z M763.7,736.4c21,0,30.2-8.5,30.2-21.7
		c0-14.6-9.9-20.4-29.7-20.4h-19.7v42.1L763.7,736.4L763.7,736.4z M767.5,809.1c22.6,0,34.9-8,34.9-25.3c0-16.1-12.1-22.8-34.9-22.8
		h-23v48.1H767.5L767.5,809.1z"/>
	<polygon class="st0" points="548.1,834.5 598.5,739 650.9,834.5 688.6,834.5 597.8,669.2 510.7,834.5 	"/>
</g>
</svg>
